<mxfile host="app.diagrams.net" modified="2024-03-25T02:43:17.912Z" agent="Mozilla/5.0 (Windows NT 10.0; Win64; x64) AppleWebKit/537.36 (KHTML, like Gecko) Chrome/122.0.0.0 Safari/537.36" version="24.1.0" etag="SQ81HRhMyZK47R_Ar-9v" type="github">
  <diagram name="Trang-1" id="hZ-JdZ8VADimxUcjh83w">
    <mxGraphModel>
      <root>
        <mxCell id="0" />
        <mxCell id="1" parent="0" />
      </root>
    </mxGraphModel>
  </diagram>
</mxfile>
